<svg fill="none" xmlns="http://www.w3.org/2000/svg" viewBox="0 0 70 70"><g clip-path="url(#a)"><path d="M32.65 32.735h2.332V43.23H32.65V32.735ZM41.978 37.4h2.332v5.83h-2.332V37.4ZM23.321 40.898h2.332v2.332h-2.332v-2.332ZM16.325 39.731h2.332v3.498h-2.332v-3.498Z" fill="#2196F3"/><path d="M10.498 67.687h55.97a3.498 3.498 0 0 0 3.499-3.498v-4.664a3.498 3.498 0 0 0-3.498-3.498h-1.166v-29.08l6.623-6.274a3.518 3.518 0 1 0-1.633-1.668l-4.99 4.73v-2.69a3.498 3.498 0 0 0-3.498-3.498H15.162a3.498 3.498 0 0 0-3.498 3.498v34.982h-1.166A3.498 3.498 0 0 0 7 59.525v4.664a3.498 3.498 0 0 0 3.498 3.498Zm62.967-51.306a1.166 1.166 0 1 1 0 2.332 1.166 1.166 0 0 1 0-2.332Zm-59.469 4.664c0-.644.522-1.166 1.166-1.166h46.643c.644 0 1.166.522 1.166 1.166v4.897l-2.332 2.216v-4.78c0-.645-.523-1.167-1.167-1.167H17.495c-.644 0-1.167.522-1.167 1.166V52.53c0 .644.523 1.166 1.166 1.166h41.978c.645 0 1.167-.522 1.167-1.166V31.366l2.332-2.21v26.87H13.996v-34.98Zm10.495 15.159a3.498 3.498 0 1 0 2.422 6.012l4.053 2.033c.471.236 1.042.126 1.392-.268l8.617-9.693 8.47 6.347c.454.34 1.088.304 1.5-.086l7.361-6.973v17.787H18.661v-26.82h39.645v5.82l-8.25 7.813-8.54-6.404a1.167 1.167 0 0 0-1.572.158l-8.734 9.828-3.265-1.633a3.3 3.3 0 0 0 .044-.423 3.498 3.498 0 0 0-3.498-3.498Zm1.166 3.498a1.166 1.166 0 1 1-2.332 0 1.166 1.166 0 0 1 2.332 0Zm6.996 18.657h11.66v1.166c0 .644-.521 1.166-1.165 1.166h-9.329a1.166 1.166 0 0 1-1.166-1.166v-1.166Zm-23.32 1.166c0-.644.521-1.166 1.165-1.166h19.823v1.166a3.498 3.498 0 0 0 3.498 3.498h9.329a3.498 3.498 0 0 0 3.498-3.498v-1.166h19.823c.644 0 1.166.522 1.166 1.166v4.664c0 .644-.522 1.166-1.166 1.166h-55.97a1.166 1.166 0 0 1-1.167-1.166v-4.664Z" fill="#212121"/></g><defs><clipPath id="a"><path fill="#fff" d="M0 0h70v70H0z"/></clipPath></defs></svg>